<svg xmlns="http://www.w3.org/2000/svg" xmlns:xlink="http://www.w3.org/1999/xlink" width="192.512" height="150.016" viewBox="0 0 192.512 150.016">
  <defs>
    <linearGradient id="linear-gradient" y1="0.5" x2="1" y2="0.5" gradientUnits="objectBoundingBox">
      <stop offset="0" stop-color="#01a6da"/>
      <stop offset="0.483" stop-color="#3fc3db"/>
      <stop offset="1" stop-color="#63c8d4"/>
    </linearGradient>
  </defs>
  <g id="Group_8628" data-name="Group 8628" transform="translate(1086.941 -40)">
    <path id="Path_91685" data-name="Path 91685" d="M-1028.32,108.758a26.832,26.832,0,0,0-6.626-8.2,33.458,33.458,0,0,0-9.411-5.5,42.937,42.937,0,0,0-10.692-2.637v-.6q10.236-2.1,16.636-8.212,6.406-6.1,6.407-16.03c0-6.035-1.66-10.994-4.979-14.911a29.787,29.787,0,0,0-12.652-8.738,44.589,44.589,0,0,0-10.01-2.479,84.246,84.246,0,0,0-10.913-.684h-16.383v2.408c.37-.041.754-.1,1.166-.149a48.465,48.465,0,0,1,5.722-.3q10.548,0,17.319,3.022a22.053,22.053,0,0,1,9.559,8.426,23.936,23.936,0,0,1,3.843,13.408,23.155,23.155,0,0,1-7,17.163q-7.007,6.923-20.563,7.678c-1.4.108-3.26.156-5.565.156h-4.484v2.267h10.65a67.361,67.361,0,0,1,7.614.368,36.492,36.492,0,0,1,6.55,1.424,29.517,29.517,0,0,1,7.45,3.7,25.547,25.547,0,0,1,5.871,5.558,26.9,26.9,0,0,1,3.916,7.087,23.324,23.324,0,0,1,1.438,8.2,24.229,24.229,0,0,1-3.466,13.188,24.96,24.96,0,0,1-9.787,8.8,27.939,27.939,0,0,1-9.945,3.154,81.391,81.391,0,0,1-9.485.608,21.212,21.212,0,0,1-7.833-1.125,11.947,11.947,0,0,1-2.972-1.715v5.1h15.921q6.629,0,13.712-.453a44.872,44.872,0,0,0,12.8-2.555,28.4,28.4,0,0,0,6.618-3.539,29.619,29.619,0,0,0,6.027-5.664,27.016,27.016,0,0,0,4.369-7.654,27.556,27.556,0,0,0,1.659-9.791A22.86,22.86,0,0,0-1028.32,108.758Z" transform="translate(0 -0.338)" fill="#a7a8a9"/>
    <path id="Path_91686" data-name="Path 91686" d="M-975.223,42.835c.969-.149,2.349-.289,4.155-.4,2.151-.164,4.229-.231,6.24-.231a126.159,126.159,0,0,1,16.038.862q6.589.863,9.024,2,10.162,5.024,21.779,19.485l1.436-.713L-926.3,40.2h-48.926Z" transform="translate(-49.351 -0.088)" fill="#898a8d"/>
    <path id="Path_91687" data-name="Path 91687" d="M-969.558,117.312c.953,0,1.906.017,2.867.076s2.143.1,3.581.213a24.154,24.154,0,0,1,7.513,1.575,18.8,18.8,0,0,1,5.519,3.285,25.24,25.24,0,0,1,4.943,7.309,49.26,49.26,0,0,1,3.514,9.461h1.708V94.1h-1.708a68.1,68.1,0,0,1-1.938,7.233A20.077,20.077,0,0,1-946.425,107a15.831,15.831,0,0,1-4.656,4.155,24.957,24.957,0,0,1-7.161,2.718,32.8,32.8,0,0,1-4.655.649c-1.856.14-3.729.263-5.585.354s-3.506.14-4.943.14h-1.8v2.3h5.665Z" transform="translate(-49.351 -23.898)" fill="#898a8d"/>
    <path id="Path_91688" data-name="Path 91688" d="M-913.408,185.214a95.5,95.5,0,0,1-6.944,10.527,47.044,47.044,0,0,1-6.948,7.382,29.537,29.537,0,0,1-7.448,4.65A30.951,30.951,0,0,1-943.2,210q-4.148.565-7.956.725c-2.53.087-4.606.137-6.234.137A61.675,61.675,0,0,1-967.981,210c-3.251-.582-5.3-1.526-6.165-2.864a9.3,9.3,0,0,1-1.077-2.6V213h56.233l7.161-27.36Z" transform="translate(-49.351 -64.148)" fill="#898a8d"/>
    <path id="Path_91689" data-name="Path 91689" d="M-794.667,132.818a30.28,30.28,0,0,1-7.111,9.532,30.572,30.572,0,0,1-10.51,6.117,38.389,38.389,0,0,1-12.868,2.127,37.978,37.978,0,0,1-10.661-1.584,30.3,30.3,0,0,1-9.681-4.854,25.7,25.7,0,0,1-6.962-7.859,20.248,20.248,0,0,1-2.644-10.214,19.144,19.144,0,0,1,1.963-8.63,31.789,31.789,0,0,1,5.14-7.335,53.159,53.159,0,0,1,7.046-6.271c2.562-1.923,5.115-3.738,7.635-5.454-2.627-1.806-5.164-3.729-7.635-5.748a44.085,44.085,0,0,1-6.587-6.575,29.947,29.947,0,0,1-4.615-7.944A26.511,26.511,0,0,1-853.9,68.3,24.6,24.6,0,0,1-851.318,57.1a29.519,29.519,0,0,1,6.8-8.934A32.949,32.949,0,0,1-834.83,42.2,29.273,29.273,0,0,1-823.785,40a39.693,39.693,0,0,1,12.7,1.89,29.665,29.665,0,0,1,9.453,5.065,22.4,22.4,0,0,1,5.978,7.5,20.456,20.456,0,0,1,2.126,9.156,18.784,18.784,0,0,1-1.9,8.382,30.349,30.349,0,0,1-5.073,7.276,47.9,47.9,0,0,1-7.334,6.348c-2.777,1.961-5.615,3.852-8.549,5.663q3.179,1.824,7.416,4.323a41.266,41.266,0,0,1,7.942,6.117,37.349,37.349,0,0,1,6.355,8.326,21.455,21.455,0,0,1,2.653,10.743A27.429,27.429,0,0,1-794.667,132.818Zm-11.645-13.09a28.185,28.185,0,0,0-5.3-7.636,42.344,42.344,0,0,0-8.245-6.587,108.3,108.3,0,0,0-10.887-5.895,20.685,20.685,0,0,0-5.979,5.067,31.99,31.99,0,0,0-4.155,6.658,35.18,35.18,0,0,0-2.5,7.186,30.537,30.537,0,0,0-.837,6.81q0,10.884,6.053,16.938a20.891,20.891,0,0,0,15.431,6.061,19.309,19.309,0,0,0,8.555-1.751,15.887,15.887,0,0,0,5.674-4.465,18.07,18.07,0,0,0,3.1-6.117,24.606,24.606,0,0,0,.979-6.882A22.169,22.169,0,0,0-806.313,119.727Zm1.207-64.215a19.757,19.757,0,0,0-3.784-6.734,17.626,17.626,0,0,0-6.2-4.541,20.464,20.464,0,0,0-8.4-1.666,21.949,21.949,0,0,0-7.257,1.215,19.581,19.581,0,0,0-6.21,3.481,16.332,16.332,0,0,0-4.3,5.6,17.6,17.6,0,0,0-1.587,7.7,22.484,22.484,0,0,0,2.332,10.436,31.387,31.387,0,0,0,5.988,8.1,44.223,44.223,0,0,0,7.792,6.128c2.767,1.715,5.371,3.276,7.784,4.688a29.521,29.521,0,0,0,11.421-10.816,30.5,30.5,0,0,0,3.7-15.5A25.494,25.494,0,0,0-805.105,55.512Z" transform="translate(-102.414)" fill="url(#linear-gradient)"/>
    <path id="Path_91690" data-name="Path 91690" d="M-1011.073,279.886a5.4,5.4,0,0,1,3.563,1.139,3.537,3.537,0,0,1,1.376,2.844,3.3,3.3,0,0,1-.575,1.923,3.9,3.9,0,0,1-1.667,1.319v.137a4.575,4.575,0,0,1,2.589,1.484,3.94,3.94,0,0,1,.924,2.6,4.217,4.217,0,0,1-.676,2.359,4.169,4.169,0,0,1-1.877,1.566,7.047,7.047,0,0,1-2.827.523h-6.656v-15.9Zm-.818,6.6a2.946,2.946,0,0,0,1.923-.578,1.982,1.982,0,0,0,.707-1.617,1.794,1.794,0,0,0-.652-1.461,2.56,2.56,0,0,0-1.705-.54h-2.206v4.2Zm.716,6.894a3.945,3.945,0,0,0,2.355-.585,2.007,2.007,0,0,0,.8-1.723,1.881,1.881,0,0,0-.792-1.6,3.477,3.477,0,0,0-2.123-.584h-2.887v4.492Z" transform="translate(-30.942 -105.97)" fill="#a7a8a9"/>
    <path id="Path_91691" data-name="Path 91691" d="M-967.891,279.886v2.4h-7.2v4.173h6.9v2.4h-6.9v4.515h7.364v2.4h-10.434v-15.9Z" transform="translate(-48.052 -105.97)" fill="#a7a8a9"/>
    <path id="Path_91692" data-name="Path 91692" d="M-936.1,279.886a5.325,5.325,0,0,1,3.653,1.242,4.093,4.093,0,0,1,1.411,3.229,4.045,4.045,0,0,1-.7,2.362,4.641,4.641,0,0,1-2.075,1.586,4.677,4.677,0,0,1,1.353,1.113,14.468,14.468,0,0,1,1.467,2.379c.971,1.929,1.69,3.252,2.161,3.983h-3.424a18.465,18.465,0,0,1-.954-1.675,35.969,35.969,0,0,0-1.937-3.416,4.656,4.656,0,0,0-1.181-1.254,2.363,2.363,0,0,0-1.309-.368h-1.114v6.713h-3.074v-15.9Zm-.693,6.78a2.774,2.774,0,0,0,1.9-.6,2.082,2.082,0,0,0,.687-1.647,1.958,1.958,0,0,0-.681-1.634,3.08,3.08,0,0,0-1.948-.541h-1.909v4.425Z" transform="translate(-64.107 -105.97)" fill="#a7a8a9"/>
    <path id="Path_91693" data-name="Path 91693" d="M-904.166,279.886l3.845,5.312,3.89-5.312h3.653l-6.009,8.022v7.873h-3.072v-7.9l-6.042-8Z" transform="translate(-79.091 -105.97)" fill="#a7a8a9"/>
    <path id="Path_91694" data-name="Path 91694" d="M-861.9,279.886v13.493h7.714v2.4h-10.785v-15.9Z" transform="translate(-98.058 -105.97)" fill="#a7a8a9"/>
    <path id="Path_91695" data-name="Path 91695" d="M-825.562,279.519a4.941,4.941,0,0,1,3.476,1.24,4.161,4.161,0,0,1,1.349,3.208,3.8,3.8,0,0,1-1.957,3.378,4.252,4.252,0,0,1,1.776,1.6,4.469,4.469,0,0,1,.545,2.241,4.367,4.367,0,0,1-.673,2.385,4.5,4.5,0,0,1-1.865,1.654,5.89,5.89,0,0,1-2.652.593,5.453,5.453,0,0,1-3.747-1.3,4.24,4.24,0,0,1-1.475-3.334,4.255,4.255,0,0,1,.582-2.291,4.387,4.387,0,0,1,1.752-1.555,3.833,3.833,0,0,1-1.957-3.4,4.109,4.109,0,0,1,1.356-3.192A4.994,4.994,0,0,1-825.562,279.519Zm-2.262,11.535a2.623,2.623,0,0,0,.613,1.844,2.116,2.116,0,0,0,1.648.672,2.058,2.058,0,0,0,1.634-.678,2.6,2.6,0,0,0,.6-1.791,2.7,2.7,0,0,0-.614-1.829,2,2,0,0,0-1.593-.719,2.16,2.16,0,0,0-1.656.678A2.572,2.572,0,0,0-827.824,291.054Zm.327-7.04a2.542,2.542,0,0,0,.547,1.677,1.735,1.735,0,0,0,1.388.654,1.678,1.678,0,0,0,1.365-.678,2.539,2.539,0,0,0,.547-1.654,2.434,2.434,0,0,0-.518-1.64,1.745,1.745,0,0,0-1.394-.6,1.8,1.8,0,0,0-1.41.591A2.409,2.409,0,0,0-827.5,284.014Z" transform="translate(-113.158 -105.808)" fill="#a7a8a9"/>
  </g>
</svg>
